<svg width="56" height="44" viewBox="0 0 56 44" fill="none" xmlns="http://www.w3.org/2000/svg">
<path d="M41.125 0.875C41.125 1.10706 41.2172 1.32961 41.3813 1.49371C41.5454 1.6578 41.7679 1.74999 42 1.75H46.375C46.6071 1.75 46.8296 1.65781 46.9937 1.49372C47.1578 1.32962 47.25 1.10706 47.25 0.875C47.25 0.642936 47.1578 0.420376 46.9937 0.256282C46.8296 0.0921874 46.6071 0 46.375 0H42C41.7679 1.16022e-05 41.5454 0.0922024 41.3813 0.256294C41.2172 0.420386 41.125 0.642939 41.125 0.875Z" fill="url(#paint0_linear_68_930)"/>
<path d="M52.5 6.125H49.4375V4.375C49.437 3.91102 49.2525 3.46619 48.9244 3.13811C48.5963 2.81003 48.1515 2.62549 47.6875 2.625H39.8125C39.3485 2.62549 38.9037 2.81003 38.5756 3.13811C38.2475 3.46619 38.063 3.91102 38.0625 4.375V6.125H35.875C35.8745 5.66102 35.69 5.21619 35.3619 4.88811C35.0338 4.56003 34.589 4.37549 34.125 4.375H32.375C31.911 4.37549 31.4662 4.56003 31.1381 4.88811C30.81 5.21619 30.6255 5.66102 30.625 6.125H3.5C2.57207 6.12606 1.68245 6.49515 1.0263 7.1513C0.370152 7.80745 0.00106182 8.69707 0 9.625L0 40.25C0.00106182 41.1779 0.370152 42.0676 1.0263 42.7237C1.68245 43.3798 2.57207 43.7489 3.5 43.75H52.5C53.4279 43.7489 54.3176 43.3798 54.9737 42.7237C55.6298 42.0676 55.9989 41.1779 56 40.25V9.625C55.9989 8.69707 55.6298 7.80745 54.9737 7.1513C54.3176 6.49515 53.4279 6.12606 52.5 6.125ZM54.25 17.0625C54.2497 17.2945 54.1575 17.5169 53.9934 17.6809C53.8294 17.845 53.607 17.9372 53.375 17.9375H42.5941C42.8664 18.5063 43.105 19.0907 43.3088 19.6875H53.375C53.6733 19.6869 53.9692 19.6351 54.25 19.5344V40.25C54.2495 40.714 54.065 41.1588 53.7369 41.4869C53.4088 41.815 52.964 41.9995 52.5 42H3.5C3.03602 41.9995 2.59119 41.815 2.26311 41.4869C1.93503 41.1588 1.75049 40.714 1.75 40.25V19.5344C2.03076 19.6351 2.32672 19.6869 2.625 19.6875H12.6912C12.895 19.0907 13.1336 18.5063 13.4059 17.9375H2.625C2.39302 17.9372 2.17061 17.845 2.00657 17.6809C1.84254 17.5169 1.75027 17.2945 1.75 17.0625V9.625C1.75049 9.16102 1.93503 8.71619 2.26311 8.38811C2.59119 8.06003 3.03602 7.87549 3.5 7.875H31.5C31.7321 7.87499 31.9546 7.7828 32.1187 7.61871C32.2828 7.45461 32.375 7.23206 32.375 7V6.125H34.125V7C34.125 7.23206 34.2172 7.45461 34.3813 7.61871C34.5454 7.7828 34.7679 7.87499 35 7.875H38.9375C39.1696 7.87499 39.3921 7.7828 39.5562 7.61871C39.7203 7.45461 39.8125 7.23206 39.8125 7V4.375H47.6875V7C47.6875 7.23206 47.7797 7.45461 47.9438 7.61871C48.1079 7.7828 48.3304 7.87499 48.5625 7.875H52.5C52.964 7.87549 53.4088 8.06003 53.7369 8.38811C54.065 8.71619 54.2495 9.16102 54.25 9.625V17.0625Z" fill="url(#paint1_linear_68_930)"/>
<path d="M28 10.5C25.1445 10.5 22.3532 11.3467 19.979 12.9332C17.6047 14.5196 15.7542 16.7744 14.6615 19.4125C13.5688 22.0506 13.2828 24.9535 13.8399 27.7541C14.397 30.5547 15.772 33.1272 17.7912 35.1464C19.8103 37.1655 22.3828 38.5405 25.1834 39.0976C27.984 39.6547 30.8869 39.3687 33.525 38.276C36.1631 37.1833 38.4179 35.3328 40.0044 32.9585C41.5908 30.5843 42.4375 27.793 42.4375 24.9375C42.4332 21.1098 40.9107 17.44 38.2041 14.7334C35.4975 12.0268 31.8277 10.5043 28 10.5ZM28 37.625C25.4907 37.625 23.0377 36.8809 20.9512 35.4868C18.8648 34.0926 17.2386 32.1111 16.2783 29.7928C15.318 27.4745 15.0667 24.9234 15.5563 22.4623C16.0458 20.0012 17.2542 17.7405 19.0286 15.9661C20.803 14.1917 23.0637 12.9833 25.5248 12.4938C27.9859 12.0042 30.537 12.2555 32.8553 13.2158C35.1736 14.1761 37.1552 15.8023 38.5493 17.8887C39.9434 19.9752 40.6875 22.4281 40.6875 24.9375C40.6875 28.3024 39.3508 31.5295 36.9714 33.9089C34.5921 36.2883 31.3649 37.625 28 37.625Z" fill="url(#paint2_linear_68_930)"/>
<path d="M28 14.4375C25.9233 14.4375 23.8932 15.0533 22.1665 16.2071C20.4398 17.3608 19.094 19.0007 18.2993 20.9193C17.5045 22.8379 17.2966 24.9491 17.7018 26.9859C18.1069 29.0227 19.1069 30.8937 20.5754 32.3621C22.0438 33.8306 23.9148 34.8306 25.9516 35.2357C27.9884 35.6409 30.0996 35.433 32.0182 34.6382C33.9368 33.8435 35.5767 32.4977 36.7304 30.771C37.8842 29.0443 38.5 27.0142 38.5 24.9375C38.4969 22.1537 37.3896 19.4848 35.4211 17.5164C33.4527 15.5479 30.7838 14.4406 28 14.4375ZM28 33.6875C26.8363 33.6885 25.6842 33.4566 24.6115 33.0054C23.5388 32.5541 22.5673 31.8928 21.7543 31.0602L24.9683 27.5693L28.5682 30.0232L33.7127 24.4502L36.4478 27.185C35.9533 29.0484 34.8569 30.6962 33.3292 31.8722C31.8014 33.0481 29.9279 33.6863 28 33.6875ZM36.7464 25.009L33.6623 21.9248L28.3068 27.7268L24.7051 25.272L20.6504 29.675C19.9135 28.532 19.4532 27.2329 19.3062 25.8809C19.1591 24.5289 19.3293 23.1612 19.8033 21.8865C20.2773 20.6117 21.0419 19.4651 22.0366 18.5375C23.0312 17.61 24.2284 16.9272 25.533 16.5433C26.8377 16.1593 28.2139 16.0849 29.5524 16.3259C30.8909 16.5669 32.1547 17.1166 33.2436 17.9315C34.3324 18.7463 35.2163 19.8038 35.825 21.02C36.4337 22.2362 36.7504 23.5775 36.75 24.9375C36.75 24.9616 36.7466 24.9849 36.7464 25.009Z" fill="url(#paint3_linear_68_930)"/>
<path d="M7.875 10.9375H4.375C4.14294 10.9375 3.92038 11.0297 3.75628 11.1938C3.59219 11.3579 3.5 11.5804 3.5 11.8125C3.5 12.0446 3.59219 12.2671 3.75628 12.4312C3.92038 12.5953 4.14294 12.6875 4.375 12.6875H7.875C8.10706 12.6875 8.32962 12.5953 8.49372 12.4312C8.65781 12.2671 8.75 12.0446 8.75 11.8125C8.75 11.5804 8.65781 11.3579 8.49372 11.1938C8.32962 11.0297 8.10706 10.9375 7.875 10.9375Z" fill="url(#paint4_linear_68_930)"/>
<path d="M26.25 18.375C25.7308 18.375 25.2233 18.529 24.7916 18.8174C24.36 19.1058 24.0235 19.5158 23.8248 19.9955C23.6261 20.4751 23.5742 21.0029 23.6754 21.5121C23.7767 22.0213 24.0267 22.489 24.3938 22.8562C24.761 23.2233 25.2287 23.4733 25.7379 23.5746C26.2471 23.6758 26.7749 23.6239 27.2545 23.4252C27.7342 23.2265 28.1442 22.89 28.4326 22.4584C28.721 22.0267 28.875 21.5192 28.875 21C28.8742 20.304 28.5974 19.6368 28.1053 19.1447C27.6132 18.6526 26.946 18.3758 26.25 18.375ZM26.25 21.875C26.0769 21.875 25.9078 21.8237 25.7639 21.7275C25.62 21.6314 25.5078 21.4947 25.4416 21.3348C25.3754 21.175 25.3581 20.999 25.3918 20.8293C25.4256 20.6596 25.5089 20.5037 25.6313 20.3813C25.7537 20.2589 25.9096 20.1756 26.0793 20.1418C26.249 20.108 26.425 20.1254 26.5849 20.1916C26.7447 20.2578 26.8814 20.37 26.9775 20.5139C27.0737 20.6578 27.125 20.8269 27.125 21C27.125 21.2321 27.0328 21.4546 26.8687 21.6187C26.7046 21.7828 26.4821 21.875 26.25 21.875Z" fill="url(#paint5_linear_68_930)"/>
<path d="M50.75 10.0625H47.25C46.7859 10.0625 46.3408 10.2469 46.0126 10.5751C45.6844 10.9033 45.5 11.3484 45.5 11.8125V13.5625C45.5 14.0266 45.6844 14.4717 46.0126 14.7999C46.3408 15.1281 46.7859 15.3125 47.25 15.3125H50.75C51.2141 15.3125 51.6592 15.1281 51.9874 14.7999C52.3156 14.4717 52.5 14.0266 52.5 13.5625V11.8125C52.5 11.3484 52.3156 10.9033 51.9874 10.5751C51.6592 10.2469 51.2141 10.0625 50.75 10.0625ZM50.75 13.5625H47.25V11.8125H50.75V13.5625Z" fill="url(#paint6_linear_68_930)"/>
<defs>
<linearGradient id="paint0_linear_68_930" x1="41.125" y1="0.5" x2="47.1656" y2="2.59143" gradientUnits="userSpaceOnUse">
<stop stop-color="#EC5B2A"/>
<stop offset="1" stop-color="#EB794B"/>
</linearGradient>
<linearGradient id="paint1_linear_68_930" x1="-1.01925e-06" y1="14.375" x2="60.7466" y2="22.5577" gradientUnits="userSpaceOnUse">
<stop stop-color="#EC5B2A"/>
<stop offset="1" stop-color="#EB794B"/>
</linearGradient>
<linearGradient id="paint2_linear_68_930" x1="13.5625" y1="18.75" x2="45.1442" y2="21.8741" gradientUnits="userSpaceOnUse">
<stop stop-color="#EC5B2A"/>
<stop offset="1" stop-color="#EB794B"/>
</linearGradient>
<linearGradient id="paint3_linear_68_930" x1="17.5" y1="20.4375" x2="40.4685" y2="22.7096" gradientUnits="userSpaceOnUse">
<stop stop-color="#EC5B2A"/>
<stop offset="1" stop-color="#EB794B"/>
</linearGradient>
<linearGradient id="paint4_linear_68_930" x1="3.5" y1="11.4375" x2="8.82899" y2="13.019" gradientUnits="userSpaceOnUse">
<stop stop-color="#EC5B2A"/>
<stop offset="1" stop-color="#EB794B"/>
</linearGradient>
<linearGradient id="paint5_linear_68_930" x1="23.625" y1="19.875" x2="29.3671" y2="20.443" gradientUnits="userSpaceOnUse">
<stop stop-color="#EC5B2A"/>
<stop offset="1" stop-color="#EB794B"/>
</linearGradient>
<linearGradient id="paint6_linear_68_930" x1="45.5" y1="11.5625" x2="53.0989" y2="12.5648" gradientUnits="userSpaceOnUse">
<stop stop-color="#EC5B2A"/>
<stop offset="1" stop-color="#EB794B"/>
</linearGradient>
</defs>
</svg>
