<svg width="56" height="60" viewBox="0 0 56 60" fill="none" xmlns="http://www.w3.org/2000/svg">
<path d="M46.38 42.5L41.2 48.26L39.62 46.5C39.4887 46.3529 39.3297 46.2331 39.1521 46.1475C38.9745 46.0619 38.7817 46.0121 38.5849 46.0009C38.388 45.9898 38.1909 46.0175 38.0047 46.0826C37.8186 46.1476 37.6471 46.2487 37.5 46.38C37.3529 46.5113 37.2331 46.6703 37.1475 46.8479C37.0619 47.0255 37.0121 47.2183 37.0009 47.4151C36.9898 47.612 37.0175 47.8091 37.0826 47.9953C37.1476 48.1814 37.2487 48.3529 37.38 48.5L40.08 51.5C40.2207 51.658 40.3933 51.7844 40.5863 51.8709C40.7793 51.9575 40.9885 52.0022 41.2 52.0022C41.4115 52.0022 41.6207 51.9575 41.8137 51.8709C42.0067 51.7844 42.1793 51.658 42.32 51.5L48.62 44.5C48.7513 44.3529 48.8524 44.1814 48.9174 43.9953C48.9825 43.8091 49.0102 43.612 48.9991 43.4151C48.9879 43.2183 48.9381 43.0255 48.8525 42.8479C48.7669 42.6703 48.6471 42.5113 48.5 42.38C48.3529 42.2487 48.1814 42.1476 47.9953 42.0826C47.8091 42.0175 47.612 41.9898 47.4151 42.0009C47.2183 42.0121 47.0255 42.0619 46.8479 42.1475C46.6703 42.2331 46.5113 42.3529 46.38 42.5Z" fill="url(#paint0_linear_68_909)"/>
<path d="M8 25C9.10457 25 10 24.1046 10 23C10 21.8954 9.10457 21 8 21C6.89543 21 6 21.8954 6 23C6 24.1046 6.89543 25 8 25Z" fill="url(#paint1_linear_68_909)"/>
<path d="M8 37C9.10457 37 10 36.1046 10 35C10 33.8954 9.10457 33 8 33C6.89543 33 6 33.8954 6 35C6 36.1046 6.89543 37 8 37Z" fill="url(#paint2_linear_68_909)"/>
<path d="M8 49C9.10457 49 10 48.1046 10 47C10 45.8954 9.10457 45 8 45C6.89543 45 6 45.8954 6 47C6 48.1046 6.89543 49 8 49Z" fill="url(#paint3_linear_68_909)"/>
<path d="M29.6 58H4C3.46957 58 2.96086 57.7893 2.58579 57.4142C2.21071 57.0391 2 56.5304 2 56V12C2 11.4696 2.21071 10.9609 2.58579 10.5858C2.96086 10.2107 3.46957 10 4 10H11V11.91C10.9893 12.452 11.1937 12.9762 11.5685 13.3679C11.9433 13.7596 12.458 13.9869 13 14H31C31.542 13.9869 32.0567 13.7596 32.4315 13.3679C32.8063 12.9762 33.0107 12.452 33 11.91V10H39C39.7957 10 40.5587 10.3161 41.1213 10.8787C41.6839 11.4413 42 12.2044 42 13V29C42 29.2652 42.1054 29.5196 42.2929 29.7071C42.4804 29.8946 42.7348 30 43 30C43.2652 30 43.5196 29.8946 43.7071 29.7071C43.8946 29.5196 44 29.2652 44 29V13C44 12.3434 43.8707 11.6932 43.6194 11.0866C43.3681 10.48 42.9998 9.92876 42.5355 9.46447C42.0712 9.00017 41.52 8.63188 40.9134 8.3806C40.3068 8.12933 39.6566 8 39 8H32.94C32.832 7.02038 32.374 6.11269 31.6501 5.4439C30.9261 4.77511 29.9851 4.39021 29 4.36H27.68C27.3178 3.12493 26.5723 2.03698 25.5514 1.25327C24.5304 0.469561 23.2867 0.0306743 22 0C20.7133 0.0306743 19.4696 0.469561 18.4486 1.25327C17.4277 2.03698 16.6822 3.12493 16.32 4.36H15C14.0149 4.39021 13.0739 4.77511 12.3499 5.4439C11.626 6.11269 11.168 7.02038 11.06 8H4C2.93913 8 1.92172 8.42143 1.17157 9.17157C0.421427 9.92172 0 10.9391 0 12V56C0 57.0609 0.421427 58.0783 1.17157 58.8284C1.92172 59.5786 2.93913 60 4 60H29.6C29.8652 60 30.1196 59.8946 30.3071 59.7071C30.4946 59.5196 30.6 59.2652 30.6 59C30.6 58.7348 30.4946 58.4804 30.3071 58.2929C30.1196 58.1054 29.8652 58 29.6 58ZM13 8.64C12.967 8.07342 13.1583 7.5166 13.5325 7.08995C13.9068 6.66329 14.4339 6.40108 15 6.36H17.93L18.08 5.54C18.2189 4.58577 18.6865 3.70995 19.4021 3.06366C20.1178 2.41738 21.0366 2.04119 22 2C22.9634 2.04119 23.8822 2.41738 24.5979 3.06366C25.3135 3.70995 25.7811 4.58577 25.92 5.54L26.07 6.36H29C29.5661 6.40108 30.0932 6.66329 30.4675 7.08995C30.8417 7.5166 31.033 8.07342 31 8.64V11.91C31 12 31 12 31 12H13C12.9934 11.9842 12.99 11.9672 12.99 11.95C12.99 11.9328 12.9934 11.9158 13 11.9V8.64Z" fill="url(#paint4_linear_68_909)"/>
<path d="M43 34C40.4288 34 37.9154 34.7624 35.7776 36.1909C33.6398 37.6194 31.9735 39.6497 30.9896 42.0251C30.0056 44.4006 29.7482 47.0144 30.2498 49.5362C30.7514 52.0579 31.9895 54.3743 33.8076 56.1924C35.6257 58.0105 37.9421 59.2486 40.4638 59.7502C42.9856 60.2518 45.5995 59.9944 47.9749 59.0104C50.3503 58.0265 52.3807 56.3603 53.8091 54.2224C55.2376 52.0846 56 49.5712 56 47C56 45.2928 55.6637 43.6023 55.0104 42.0251C54.3571 40.4479 53.3996 39.0148 52.1924 37.8076C50.9852 36.6005 49.5521 35.6429 47.9749 34.9896C46.3977 34.3363 44.7072 34 43 34ZM43 58C40.8244 58 38.6977 57.3549 36.8887 56.1462C35.0798 54.9375 33.6699 53.2195 32.8373 51.2095C32.0048 49.1995 31.7869 46.9878 32.2114 44.854C32.6358 42.7202 33.6835 40.7602 35.2218 39.2218C36.7602 37.6834 38.7202 36.6358 40.854 36.2114C42.9878 35.7869 45.1995 36.0048 47.2095 36.8373C49.2195 37.6699 50.9375 39.0798 52.1462 40.8887C53.3549 42.6977 54 44.8244 54 47C54 49.9174 52.8411 52.7153 50.7782 54.7782C48.7153 56.8411 45.9174 58 43 58Z" fill="url(#paint5_linear_68_909)"/>
<path d="M35 23C35 22.7348 34.8946 22.4804 34.7071 22.2929C34.5196 22.1054 34.2652 22 34 22H14C13.7348 22 13.4804 22.1054 13.2929 22.2929C13.1054 22.4804 13 22.7348 13 23C13 23.2652 13.1054 23.5196 13.2929 23.7071C13.4804 23.8946 13.7348 24 14 24H34C34.2652 24 34.5196 23.8946 34.7071 23.7071C34.8946 23.5196 35 23.2652 35 23Z" fill="url(#paint6_linear_68_909)"/>
<path d="M24 34H14C13.7348 34 13.4804 34.1054 13.2929 34.2929C13.1054 34.4804 13 34.7348 13 35C13 35.2652 13.1054 35.5196 13.2929 35.7071C13.4804 35.8946 13.7348 36 14 36H24C24.2652 36 24.5196 35.8946 24.7071 35.7071C24.8946 35.5196 25 35.2652 25 35C25 34.7348 24.8946 34.4804 24.7071 34.2929C24.5196 34.1054 24.2652 34 24 34Z" fill="url(#paint7_linear_68_909)"/>
<path d="M24 46H14C13.7348 46 13.4804 46.1054 13.2929 46.2929C13.1054 46.4804 13 46.7348 13 47C13 47.2652 13.1054 47.5196 13.2929 47.7071C13.4804 47.8946 13.7348 48 14 48H24C24.2652 48 24.5196 47.8946 24.7071 47.7071C24.8946 47.5196 25 47.2652 25 47C25 46.7348 24.8946 46.4804 24.7071 46.2929C24.5196 46.1054 24.2652 46 24 46Z" fill="url(#paint8_linear_68_909)"/>
<path d="M22 8.5C22.4945 8.5 22.9778 8.35338 23.3889 8.07868C23.8 7.80397 24.1205 7.41353 24.3097 6.95671C24.4989 6.4999 24.5484 5.99723 24.452 5.51228C24.3555 5.02732 24.1174 4.58187 23.7678 4.23223C23.4181 3.8826 22.9727 3.6445 22.4877 3.54804C22.0028 3.45157 21.5001 3.50108 21.0433 3.6903C20.5865 3.87952 20.196 4.19995 19.9213 4.61108C19.6466 5.0222 19.5 5.50555 19.5 6C19.5 6.66304 19.7634 7.29893 20.2322 7.76777C20.7011 8.23661 21.337 8.5 22 8.5ZM22 4.5C22.2967 4.5 22.5867 4.58797 22.8334 4.7528C23.08 4.91762 23.2723 5.15189 23.3858 5.42598C23.4993 5.70007 23.5291 6.00167 23.4712 6.29264C23.4133 6.58361 23.2704 6.85088 23.0607 7.06066C22.8509 7.27044 22.5836 7.4133 22.2926 7.47118C22.0017 7.52906 21.7001 7.49935 21.426 7.38582C21.1519 7.27229 20.9176 7.08003 20.7528 6.83336C20.588 6.58668 20.5 6.29667 20.5 6C20.5 5.60218 20.658 5.22065 20.9393 4.93934C21.2206 4.65804 21.6022 4.5 22 4.5Z" fill="url(#paint9_linear_68_909)"/>
<defs>
<linearGradient id="paint0_linear_68_909" x1="36.9985" y1="44.8567" x2="50.0709" y2="46.4083" gradientUnits="userSpaceOnUse">
<stop stop-color="#EC5B2A"/>
<stop offset="1" stop-color="#EB794B"/>
</linearGradient>
<linearGradient id="paint1_linear_68_909" x1="6" y1="22.1429" x2="10.375" y2="22.5756" gradientUnits="userSpaceOnUse">
<stop stop-color="#EC5B2A"/>
<stop offset="1" stop-color="#EB794B"/>
</linearGradient>
<linearGradient id="paint2_linear_68_909" x1="6" y1="34.1429" x2="10.375" y2="34.5756" gradientUnits="userSpaceOnUse">
<stop stop-color="#EC5B2A"/>
<stop offset="1" stop-color="#EB794B"/>
</linearGradient>
<linearGradient id="paint3_linear_68_909" x1="6" y1="46.1429" x2="10.375" y2="46.5756" gradientUnits="userSpaceOnUse">
<stop stop-color="#EC5B2A"/>
<stop offset="1" stop-color="#EB794B"/>
</linearGradient>
<linearGradient id="paint4_linear_68_909" x1="-8.00838e-07" y1="17.1429" x2="48.3411" y2="20.6497" gradientUnits="userSpaceOnUse">
<stop stop-color="#EC5B2A"/>
<stop offset="1" stop-color="#EB794B"/>
</linearGradient>
<linearGradient id="paint5_linear_68_909" x1="30" y1="41.4286" x2="58.4372" y2="44.2417" gradientUnits="userSpaceOnUse">
<stop stop-color="#EC5B2A"/>
<stop offset="1" stop-color="#EB794B"/>
</linearGradient>
<linearGradient id="paint6_linear_68_909" x1="13" y1="22.5714" x2="24.125" y2="34.6771" gradientUnits="userSpaceOnUse">
<stop stop-color="#EC5B2A"/>
<stop offset="1" stop-color="#EB794B"/>
</linearGradient>
<linearGradient id="paint7_linear_68_909" x1="13" y1="34.5714" x2="22.8007" y2="40.3885" gradientUnits="userSpaceOnUse">
<stop stop-color="#EC5B2A"/>
<stop offset="1" stop-color="#EB794B"/>
</linearGradient>
<linearGradient id="paint8_linear_68_909" x1="13" y1="46.5714" x2="22.8007" y2="52.3885" gradientUnits="userSpaceOnUse">
<stop stop-color="#EC5B2A"/>
<stop offset="1" stop-color="#EB794B"/>
</linearGradient>
<linearGradient id="paint9_linear_68_909" x1="19.5" y1="4.92857" x2="24.9687" y2="5.46955" gradientUnits="userSpaceOnUse">
<stop stop-color="#EC5B2A"/>
<stop offset="1" stop-color="#EB794B"/>
</linearGradient>
</defs>
</svg>
